HIERARCHY
ROOT Hips
{
    OFFSET 0.000000 0.000000 0.000000
    CHANNELS 6 Xposition Yposition Zposition Zrotation Xrotation Yrotation
    JOINT Spine
    {
        OFFSET 0.000002 7.819691 0.000005
        CHANNELS 3 Zrotation Xrotation Yrotation
        JOINT Spine1
        {
            OFFSET 0.000003 23.511621 0.000009
            CHANNELS 3 Zrotation Xrotation Yrotation
            JOINT Neck
            {
                OFFSET 0.000001 27.483723 0.000003
                CHANNELS 3 Zrotation Xrotation Yrotation
                JOINT Head
                {
                    OFFSET -0.000000 17.184973 2.035166
                    CHANNELS 3 Zrotation Xrotation Yrotation
                    End Site
                    {
                        OFFSET 0.000000 20.351660 0.000000
                    }
                }
            }
            JOINT LeftShoulder
            {
                OFFSET 4.036571 20.304848 -0.371904
                CHANNELS 3 Zrotation Xrotation Yrotation
                JOINT LeftArm
                {
                    OFFSET 12.502551 0.000006 0.000006
                    CHANNELS 3 Zrotation Xrotation Yrotation
                    JOINT LeftForeArm
                    {
                        OFFSET 31.806910 -0.000003 -0.000003
                        CHANNELS 3 Zrotation Xrotation Yrotation
                        JOINT LeftHand
                        {
                            OFFSET 24.843222 -0.000004 0.000004
                            CHANNELS 3 Zrotation Xrotation Yrotation
                            JOINT LeftHandThumb1
                            {
                                OFFSET 2.126749 -2.416760 3.383461
                                CHANNELS 3 Zrotation Xrotation Yrotation
                                JOINT LeftHandThumb2
                                {
                                    OFFSET 3.212125 -0.000003 0.000001
                                    CHANNELS 3 Zrotation Xrotation Yrotation
                                    JOINT LeftHandThumb3
                                    {
                                        OFFSET 2.745444 0.000007 -0.000000
                                        CHANNELS 3 Zrotation Xrotation Yrotation
                                        End Site
                                        {
                                            OFFSET 2.793713 0.000000 0.000000
                                        }
                                    }
                                }
                            }
                            JOINT LeftHandIndex1
                            {
                                OFFSET 8.700336 0.000001 3.383464
                                CHANNELS 3 Zrotation Xrotation Yrotation
                                JOINT LeftHandIndex2
                                {
                                    OFFSET 4.833509 -0.000005 -0.000003
                                    CHANNELS 3 Zrotation Xrotation Yrotation
                                    JOINT LeftHandIndex3
                                    {
                                        OFFSET 2.416764 0.000003 0.000003
                                        CHANNELS 3 Zrotation Xrotation Yrotation
                                        End Site
                                        {
                                            OFFSET 2.459254 0.000000 0.000000
                                        }
                                    }
                                }
                            }
                            JOINT LeftHandMiddle1
                            {
                                OFFSET 8.700330 -0.000003 1.121373
                                CHANNELS 3 Zrotation Xrotation Yrotation
                                JOINT LeftHandMiddle2
                                {
                                    OFFSET 5.316864 -0.000006 -0.000005
                                    CHANNELS 3 Zrotation Xrotation Yrotation
                                    JOINT LeftHandMiddle3
                                    {
                                        OFFSET 2.900115 0.000005 0.000005
                                        CHANNELS 3 Zrotation Xrotation Yrotation
                                        End Site
                                        {
                                            OFFSET 2.951103 0.000000 0.000000
                                        }
                                    }
                                }
                            }
                            JOINT LeftHandRing1
                            {
                                OFFSET 8.216985 0.000001 -1.121373
                                CHANNELS 3 Zrotation Xrotation Yrotation
                                JOINT LeftHandRing2
                                {
                                    OFFSET 4.833509 -0.000004 -0.000004
                                    CHANNELS 3 Zrotation Xrotation Yrotation
                                    JOINT LeftHandRing3
                                    {
                                        OFFSET 2.416764 0.000003 0.000003
                                        CHANNELS 3 Zrotation Xrotation Yrotation
                                        End Site
                                        {
                                            OFFSET 2.459254 0.000000 0.000000
                                        }
                                    }
                                }
                            }
                            JOINT LeftHandPinky1
                            {
                                OFFSET 7.733624 -0.000001 -3.383464
                                CHANNELS 3 Zrotation Xrotation Yrotation
                                JOINT LeftHandPinky2
                                {
                                    OFFSET 3.866822 0.000004 0.000006
                                    CHANNELS 3 Zrotation Xrotation Yrotation
                                    JOINT LeftHandPinky3
                                    {
                                        OFFSET 1.933413 0.000000 0.000002
                                        CHANNELS 3 Zrotation Xrotation Yrotation
                                        End Site
                                        {
                                            OFFSET 1.967405 0.000000 0.000000
                                        }
                                    }
                                }
                            }
                        }
                    }
                }
            }
            JOINT RightShoulder
            {
                OFFSET -4.036572 20.304850 -0.371920
                CHANNELS 3 Zrotation Xrotation Yrotation
                JOINT RightArm
                {
                    OFFSET -12.502548 0.000000 0.000003
                    CHANNELS 3 Zrotation Xrotation Yrotation
                    JOINT RightForeArm
                    {
                        OFFSET -31.806913 -0.000003 0.000004
                        CHANNELS 3 Zrotation Xrotation Yrotation
                        JOINT RightHand
                        {
                            OFFSET -24.843220 -0.000009 -0.000003
                            CHANNELS 3 Zrotation Xrotation Yrotation
                            JOINT RightHandThumb1
                            {
                                OFFSET -2.126747 -2.416754 3.383466
                                CHANNELS 3 Zrotation Xrotation Yrotation
                                JOINT RightHandThumb2
                                {
                                    OFFSET -3.212137 0.000001 -0.000000
                                    CHANNELS 3 Zrotation Xrotation Yrotation
                                    JOINT RightHandThumb3
                                    {
                                        OFFSET -2.745433 -0.000008 -0.000001
                                        CHANNELS 3 Zrotation Xrotation Yrotation
                                        End Site
                                        {
                                            OFFSET -2.793713 0.000000 0.000000
                                        }
                                    }
                                }
                            }
                            JOINT RightHandIndex1
                            {
                                OFFSET -8.700331 -0.000004 3.383456
                                CHANNELS 3 Zrotation Xrotation Yrotation
                                JOINT RightHandIndex2
                                {
                                    OFFSET -4.833518 0.000003 0.000005
                                    CHANNELS 3 Zrotation Xrotation Yrotation
                                    JOINT RightHandIndex3
                                    {
                                        OFFSET -2.416756 -0.000007 -0.000006
                                        CHANNELS 3 Zrotation Xrotation Yrotation
                                        End Site
                                        {
                                            OFFSET -2.459254 0.000000 0.000000
                                        }
                                    }
                                }
                            }
                            JOINT RightHandMiddle1
                            {
                                OFFSET -8.700328 -0.000003 1.121372
                                CHANNELS 3 Zrotation Xrotation Yrotation
                                JOINT RightHandMiddle2
                                {
                                    OFFSET -5.316870 -0.000003 -0.000004
                                    CHANNELS 3 Zrotation Xrotation Yrotation
                                    JOINT RightHandMiddle3
                                    {
                                        OFFSET -2.900113 0.000002 0.000002
                                        CHANNELS 3 Zrotation Xrotation Yrotation
                                        End Site
                                        {
                                            OFFSET -2.951103 0.000000 0.000000
                                        }
                                    }
                                }
                            }
                            JOINT RightHandRing1
                            {
                                OFFSET -8.216978 -0.000004 -1.121382
                                CHANNELS 3 Zrotation Xrotation Yrotation
                                JOINT RightHandRing2
                                {
                                    OFFSET -4.833519 0.000003 0.000005
                                    CHANNELS 3 Zrotation Xrotation Yrotation
                                    JOINT RightHandRing3
                                    {
                                        OFFSET -2.416756 -0.000005 -0.000007
                                        CHANNELS 3 Zrotation Xrotation Yrotation
                                        End Site
                                        {
                                            OFFSET -2.459254 0.000000 0.000000
                                        }
                                    }
                                }
                            }
                            JOINT RightHandPinky1
                            {
                                OFFSET -7.733630 0.000001 -3.383458
                                CHANNELS 3 Zrotation Xrotation Yrotation
                                JOINT RightHandPinky2
                                {
                                    OFFSET -3.866816 0.000002 0.000004
                                    CHANNELS 3 Zrotation Xrotation Yrotation
                                    JOINT RightHandPinky3
                                    {
                                        OFFSET -1.933405 0.000000 0.000003
                                        CHANNELS 3 Zrotation Xrotation Yrotation
                                        End Site
                                        {
                                            OFFSET -1.967405 0.000000 0.000000
                                        }
                                    }
                                }
                            }
                        }
                    }
                }
            }
        }
    }
    JOINT LeftUpLeg
    {
        OFFSET 10.175824 -0.000000 -0.000005
        CHANNELS 3 Zrotation Xrotation Yrotation
        JOINT LeftLeg
        {
            OFFSET 0.000002 -42.882950 0.000005
            CHANNELS 3 Zrotation Xrotation Yrotation
            JOINT LeftFoot
            {
                OFFSET 0.000001 -39.006771 0.000000
                CHANNELS 3 Zrotation Xrotation Yrotation
                JOINT LeftToeBase
                {
                    OFFSET 0.000001 -6.614286 15.263745
                    CHANNELS 3 Zrotation Xrotation Yrotation
                    End Site
                    {
                        OFFSET 0.000000 0.000000 4.070332
                    }
                }
            }
        }
    }
    JOINT RightUpLeg
    {
        OFFSET -10.175824 0.000000 0.000005
        CHANNELS 3 Zrotation Xrotation Yrotation
        JOINT RightLeg
        {
            OFFSET 0.000000 -42.882942 0.000003
            CHANNELS 3 Zrotation Xrotation Yrotation
            JOINT RightFoot
            {
                OFFSET 0.000003 -39.006763 0.000010
                CHANNELS 3 Zrotation Xrotation Yrotation
                JOINT RightToeBase
                {
                    OFFSET 0.000005 -6.614286 15.263748
                    CHANNELS 3 Zrotation Xrotation Yrotation
                    End Site
                    {
                        OFFSET 0.000000 0.000000 4.070332
                    }
                }
            }
        }
    }
}
MOTION
Frames:    4
Frame Time:    0.002778
-15.601855    83.735367    215.794037    4.832068    1.479944    2.611282    0.141183    8.334455    4.561563    0.705907    8.333856    4.479703    4.106839    -0.292737    -2.424327    4.106838    -0.292738    -2.424326    -4.099013    1.526751    -1.680773    -57.638908    19.792652    -10.341203    -19.145462    13.432237    -124.930527    26.033241    8.019821    16.449995    47.448219    38.866421    -34.355038    -35.000008    -0.000007    -0.000000    -0.000000    0.000000    -0.000000    0.000007    9.999993    -0.000004    -0.000000    0.000000    -0.000000    -0.000000    0.000000    -0.000000    -0.000000    0.000000    -0.000000    -0.000000    0.000000    -0.000000    -0.000000    0.000000    -0.000000    -0.000000    0.000000    -0.000000    -0.000000    0.000000    -0.000000    -0.000000    0.000000    -0.000000    0.000034    -10.000001    -0.000000    -0.000000    0.000000    -0.000000    -0.000000    0.000000    -0.000000    -2.021918    0.166919    4.573605    34.014900    -12.029998    43.387184    -13.923835    -15.943253    76.474098    -4.920450    3.279207    -32.590023    -47.448219    38.866444    34.355030    35.000000    -0.000002    0.000006    -0.000000    0.000000    -0.000000    -0.000002    9.999998    -0.000002    -0.000000    0.000000    -0.000000    -0.000000    0.000000    -0.000000    -0.000000    0.000000    -0.000000    -0.000000    0.000000    -0.000000    -0.000000    0.000000    -0.000000    -0.000000    0.000000    -0.000000    -0.000000    0.000000    -0.000000    -0.000000    0.000000    -0.000000    -0.000001    -10.000003    0.000003    -0.000000    0.000000    -0.000000    -0.000000    0.000000    -0.000000    12.265988    -26.306295    -2.767871    -0.000006    55.621899    0.000004    -22.583263    -31.661472    -2.670671    0.000000    -0.100831    0.000001    -23.828907    -32.715698    -10.849376    0.000001    64.591896    -0.000003    18.823666    -30.148674    -9.106318    -0.000000    2.082974    -0.000000    
-15.522167    83.635536    215.822296    4.805716    1.371095    2.490356    0.141956    8.368001    4.545542    0.709781    8.367395    4.462912    4.077686    -0.313151    -2.349632    4.077688    -0.313146    -2.349628    -4.114248    1.525704    -1.685774    -57.663334    19.753130    -10.300878    -19.171932    13.432352    -124.874298    26.085169    8.027367    16.428959    47.448215    38.866432    -34.355038    -35.000004    -0.000001    0.000003    -0.000000    0.000000    -0.000000    -0.000003    9.999992    -0.000007    -0.000000    0.000000    -0.000000    -0.000000    0.000000    -0.000000    -0.000000    0.000000    -0.000000    -0.000000    0.000000    -0.000000    -0.000000    0.000000    -0.000000    -0.000000    0.000000    -0.000000    -0.000000    0.000000    -0.000000    -0.000000    0.000000    -0.000000    -0.000004    -10.000007    -0.000004    -0.000000    0.000000    -0.000000    -0.000000    0.000000    -0.000000    -1.949034    0.234766    4.577778    33.995113    -11.683023    43.165222    -13.946425    -15.976375    76.493164    -4.752900    3.172776    -32.601517    -47.448227    38.866440    34.355034    35.000000    -0.000001    -0.000002    -0.000000    0.000000    -0.000000    -0.000005    10.000001    -0.000006    -0.000000    0.000000    -0.000000    -0.000000    0.000000    -0.000000    -0.000000    0.000000    -0.000000    -0.000000    0.000000    -0.000000    -0.000000    0.000000    -0.000000    -0.000000    0.000000    -0.000000    -0.000000    0.000000    -0.000000    -0.000000    0.000000    -0.000000    -0.000002    -9.999996    -0.000003    -0.000000    0.000000    -0.000000    -0.000000    0.000000    -0.000000    12.260704    -26.306847    -2.760367    -0.000001    55.993023    0.000003    -22.593681    -31.907755    -2.672806    -0.000000    -0.084372    -0.000002    -23.870647    -32.737392    -10.831604    -0.000001    64.785271    0.000001    18.892296    -30.200918    -8.927682    0.000000    2.085365    -0.000004    
-15.443354    83.540985    215.852432    4.779538    1.263936    2.371644    0.141332    8.400517    4.524642    0.706660    8.399912    4.442054    4.062327    -0.331115    -2.274166    4.062329    -0.331114    -2.274167    -4.134176    1.503864    -1.672926    -57.683838    19.740988    -10.274884    -19.220955    13.427657    -124.799385    26.152155    8.055202    16.435808    47.448212    38.866428    -34.355034    -34.999996    -0.000003    -0.000002    -0.000000    0.000000    -0.000000    -0.000003    10.000000    -0.000007    -0.000000    0.000000    -0.000000    -0.000000    0.000000    -0.000000    -0.000000    0.000000    -0.000000    -0.000000    0.000000    -0.000000    -0.000000    0.000000    -0.000000    -0.000000    0.000000    -0.000000    -0.000000    0.000000    -0.000000    -0.000000    0.000000    -0.000000    -0.000000    -10.000013    -0.000003    -0.000000    0.000000    -0.000000    -0.000000    0.000000    -0.000000    -1.900974    0.312140    4.578908    33.970509    -11.294969    42.959679    -13.886051    -16.027426    76.493202    -4.690807    3.134448    -32.623505    -47.448208    38.866428    34.355030    34.999996    0.000003    -0.000004    -0.000000    0.000000    -0.000000    -0.000003    9.999996    -0.000001    -0.000000    0.000000    -0.000000    -0.000000    0.000000    -0.000000    -0.000000    0.000000    -0.000000    -0.000000    0.000000    -0.000000    -0.000000    0.000000    -0.000000    -0.000000    0.000000    -0.000000    -0.000000    0.000000    -0.000000    -0.000000    0.000000    -0.000000    -0.000000    -10.000001    -0.000005    -0.000000    0.000000    -0.000000    -0.000000    0.000000    -0.000000    12.246867    -26.307371    -2.771286    0.000004    56.359413    -0.000004    -22.604736    -32.147530    -2.662139    -0.000000    -0.076473    0.000002    -23.909557    -32.754498    -10.810762    0.000003    64.970284    0.000001    18.951313    -30.243620    -8.760715    -0.000000    2.082354    0.000002    
-15.361137    83.450516    215.880768    4.757754    1.160731    2.254361    0.141571    8.433840    4.502469    0.707849    8.433226    4.419415    4.028276    -0.352997    -2.192481    4.028279    -0.352991    -2.192479    -4.138435    1.480296    -1.652902    -57.717831    19.744415    -10.254376    -19.230074    13.408165    -124.737572    26.234797    8.088160    16.440487    47.448212    38.866428    -34.355030    -35.000004    0.000004    0.000005    -0.000000    0.000000    -0.000000    0.000003    10.000000    0.000001    -0.000000    0.000000    -0.000000    -0.000000    0.000000    -0.000000    -0.000000    0.000000    -0.000000    -0.000000    0.000000    -0.000000    -0.000000    0.000000    -0.000000    -0.000000    0.000000    -0.000000    -0.000000    0.000000    -0.000000    -0.000000    0.000000    -0.000000    -0.000019    -9.999997    0.000002    -0.000000    0.000000    -0.000000    -0.000000    0.000000    -0.000000    -1.845111    0.373809    4.564619    33.928993    -10.890734    42.767849    -13.710353    -16.118055    76.540733    -4.724168    3.150969    -32.599388    -47.448208    38.866428    34.355030    35.000000    -0.000003    0.000004    -0.000000    0.000000    -0.000000    -0.000002    9.999998    -0.000002    -0.000000    0.000000    -0.000000    -0.000000    0.000000    -0.000000    -0.000000    0.000000    -0.000000    -0.000000    0.000000    -0.000000    -0.000000    0.000000    -0.000000    -0.000000    0.000000    -0.000000    -0.000000    0.000000    -0.000000    -0.000000    0.000000    -0.000000    -0.000002    -9.999994    -0.000004    -0.000000    0.000000    -0.000000    -0.000000    0.000000    -0.000000    12.221149    -26.306635    -2.787699    0.000010    56.713440    -0.000006    -22.592821    -32.381603    -2.634409    0.000000    -0.074614    0.000001    -23.954536    -32.770538    -10.791592    0.000005    65.141891    -0.000004    18.995802    -30.274229    -8.603786    0.000001    2.068380    -0.000003    
